<svg xmlns="http://www.w3.org/2000/svg" version="1.1" xmlns:xlink="http://www.w3.org/1999/xlink" width="1500" height="173" viewBox="0 0 1500 173"><svg xml:space="preserve" width="1500" height="173" data-version="2" data-id="lg_0YKrPpb1cpeqEjDXWt" viewBox="0 0 565 173" x="0" y="0"><rect width="100%" height="100%" fill="transparent"></rect><path fill="#00bb24" d="m193.887 70.994-55.576-22.655-55.576 22.655-19.475 49.528h11.535v49.05h40.425v-46.161h46.182v46.203h40.404v-49.092h11.556zm-44.04 29.305h-23.071v-23.07h23.07z"></path><path fill="#00bb24" d="M74.795 36.804a34.647 34.647 0 1 0-69.273 0v132.789h57.717v-37.536H46.3l28.495-72.536z"></path><path fill="#111" d="M284.66 117.476v-68.93q0-2.69-.41-3.9-.42-1.2-.42-2.22 0-1.39 1.48-2.32 1.49-.93 3.53-.93 4.73 0 7.65 2.46t2.92 5.98v70.42q0 6.86 1.12 11.69 1.11 4.82 3.34 7.88 2.22 3.06 5.47 4.5 3.25 1.44 7.42 1.44 3.99 0 7.38-1.48 3.39-1.49 5.89-4.09 2.5-2.59 3.9-6.12 1.39-3.52 1.39-7.7 0-6.4-2.23-10.67-2.22-4.27-5.8-6.86-3.57-2.6-8.07-3.67-4.5-1.07-8.95-1.07-.84 0-1.67-1.06-.84-1.07-1.39-2.65-.56-1.57-.84-3.38-.28-1.81-.09-3.39.19-1.58.88-2.64.7-1.07 2.18-1.07 2.23 0 5.38-.56 3.16-.55 6.59-1.99 3.43-1.44 6.77-3.85 3.34-2.41 6.03-6.17 2.69-3.76 4.36-8.91 1.67-5.15 1.67-12.01 0-5.38-1.81-10.62-1.81-5.25-5.8-9.37-3.98-4.13-10.2-6.68-6.22-2.55-14.94-2.55-11.41 0-19.57 3.52-8.17 3.53-13.31 9.46-5.15 5.94-7.57 13.78-2.41 7.84-2.41 16.56 0 6.31 1.07 10.62 1.07 4.32 2.36 7.05 1.3 2.74 2.42 4.04 1.11 1.3 1.3 1.48 1.57-.46 2.22.38.65.83.65 2.22 0 1.3-.88 3.9-.88 2.6-2.37 4.87-1.48 2.27-3.43 3.43-1.95 1.16-3.99-.42-1.11-1.02-3.43-3.71-2.32-2.69-4.59-7.19-2.28-4.5-4.04-10.85-1.76-6.36-1.76-14.71 0-13.36 4.17-24.16 4.18-10.81 11.74-18.51 7.56-7.7 18.04-11.88 10.49-4.17 23.2-4.17 10.76 0 19.53 2.92 8.76 2.92 14.98 8.49 6.22 5.57 9.6 13.59 3.39 8.03 3.39 18.14 0 7.79-1.86 14.1-1.85 6.31-5.15 11.32-3.29 5.01-7.79 8.86-4.5 3.85-9.69 6.63 4.17 1.21 7.79 3.57 3.62 2.37 6.31 5.99 2.69 3.62 4.26 8.49 1.58 4.87 1.58 10.99 0 7.14-2.55 13.17t-7 10.39q-4.46 4.36-10.53 6.82-6.08 2.46-13.13 2.46-9.37 0-15.59-2.83-6.21-2.83-9.92-7.98t-5.25-12.34q-1.53-7.19-1.53-16m132.76 23.38q2.88 0 4.97-2.04 2.08-2.04 3.61-5.1 1.53-3.07 2.51-6.64.97-3.57 1.62-6.72.65-2.97 1.9-4.32 1.26-1.34 2.74-1.34 1.11 0 2.27.69 1.16.7 2.14 1.81.97 1.12 1.58 2.51.6 1.39.6 2.78v.46q0 .28-.19.84-1.2 4.73-3.29 9.93-2.09 5.19-5.34 9.55-3.24 4.36-7.83 7.24-4.6 2.87-10.72 2.87-5.01 0-8.72-2.13-3.71-2.13-5.85-5.66-2.87 3.25-6.91 5.52-4.03 2.27-9.41 2.27-5.57 0-9.79-2.22-4.22-2.23-7.1-6.08-2.87-3.85-4.31-9.09-1.44-5.24-1.44-11.27 0-11.88 3.8-21.34 3.81-9.46 10.12-16.1 6.3-6.63 14.42-10.16 8.12-3.52 16.84-3.52 3.9 0 6.31 2.13 2.41 2.14 2.41 5.85 0 2.41-.51 3.38-.51.98-1.9.98-1.3 0-2.69-.19-1.39-.18-2.88-.18-5.38 0-10.94 2.36-5.57 2.37-10.07 7.24t-7.38 12.34q-2.87 7.47-2.87 17.76 0 7.52 2.87 11.55 2.88 4.04 7.89 4.04 3.9 0 6.49-2.92 2.6-2.93 4.18-6.91v-29.32q0-1.39-.14-2.32-.14-.93-.28-1.58t-.23-1.16q-.09-.51-.09-.97 0-1.49 1.43-2.37 1.44-.88 3.48-.88 4.73 0 7.52 2.46 2.78 2.46 2.78 5.89v31.36q0 1.58.37 3.11.37 1.53 1.12 2.78.74 1.25 1.99 2.04t2.92.79"></path><path fill="#111" d="M484.68 140.856q2.88 0 4.97-2.04 2.08-2.04 3.61-5.1 1.54-3.07 2.51-6.64.97-3.57 1.62-6.72.65-2.97 1.91-4.32 1.25-1.34 2.73-1.34 1.12 0 2.28.69 1.15.7 2.13 1.81.97 1.12 1.58 2.51.6 1.39.6 2.78v.46q0 .28-.19.84-1.2 4.73-3.29 9.93-2.09 5.19-5.33 9.55-3.25 4.36-7.84 7.24-4.6 2.87-10.72 2.87-5.01 0-8.72-2.13-3.71-2.13-5.84-5.66-2.88 3.25-6.92 5.52-4.03 2.27-9.41 2.27-5.57 0-9.79-2.22-4.22-2.23-7.1-6.08-2.87-3.85-4.31-9.09-1.44-5.24-1.44-11.27 0-11.88 3.8-21.34 3.81-9.46 10.12-16.1 6.31-6.63 14.42-10.16 8.12-3.52 16.84-3.52 3.9 0 6.31 2.13 2.41 2.14 2.41 5.85 0 2.41-.51 3.38-.51.98-1.9.98-1.3 0-2.69-.19-1.39-.18-2.88-.18-5.38 0-10.94 2.36-5.57 2.37-10.07 7.24t-7.38 12.34q-2.87 7.47-2.87 17.76 0 7.52 2.87 11.55 2.88 4.04 7.89 4.04 3.9 0 6.49-2.92 2.6-2.93 4.18-6.91v-29.32q0-1.39-.14-2.32-.14-.93-.28-1.58t-.23-1.16q-.09-.51-.09-.97 0-1.49 1.44-2.37 1.43-.88 3.47-.88 4.74 0 7.52 2.46 2.78 2.46 2.78 5.89v31.36q0 1.58.37 3.11.37 1.53 1.12 2.78.74 1.25 1.99 2.04t2.92.79"></path><path fill="#111" d="M495.91 52.906q0-9.74 2.78-16.88 2.79-7.15 7.38-11.83 4.59-4.69 10.34-6.91 5.75-2.23 11.78-2.23 8.35 0 14.2 3.71 5.84 3.71 9.55 9.6 3.72 5.89 5.39 13.27 1.66 7.37 1.66 14.7 0 8.82-1.71 15.68-1.72 6.87-4.55 12.06-2.83 5.2-6.58 9-3.76 3.81-7.84 6.59 2.59 1.58 5.56 3.85 2.97 2.27 5.43 5.43 2.46 3.15 4.08 7.37 1.63 4.22 1.63 9.7 0 5.93-2 10.94-1.99 5.01-5.52 8.68-3.52 3.66-8.39 5.7-4.88 2.04-10.53 2.04-6.04 0-10.81-2.59-4.78-2.6-8.07-6.45-3.3-3.85-5.01-8.26-1.72-4.4-1.72-8.12 0-1.2.97-2.08.98-.88 2.46-1.49 1.49-.6 3.25-.88t3.34-.28q4.17 0 4.17 1.12 0 .55-.18.88-.19.32-.19 1.25 0 .56.56 2.64.56 2.09 1.99 4.36 1.44 2.28 3.9 4.09t6.17 1.81q2.04 0 4.04-.89 1.99-.88 3.52-2.45 1.53-1.58 2.46-3.9.93-2.32.93-5.29 0-5.38-2-9.09-1.99-3.71-4.77-6.03-2.79-2.32-5.66-3.53-2.88-1.2-4.64-1.76-2.32-.56-3.81-2.5-1.48-1.95-1.48-5.85 0-.65.14-1.48.14-.84.55-1.58.42-.74 1.16-1.21.75-.46 1.95-.46.28 0 .65.09.37.1.84.1 4.36-1.4 8.21-4.18 3.85-2.78 6.77-7.28 2.92-4.5 4.59-11 1.67-6.49 1.67-15.3 0-6.96-1.34-12.02-1.35-5.05-3.71-8.3-2.37-3.25-5.48-4.78-3.11-1.53-6.54-1.53-3.25 0-6.35 1.44-3.11 1.44-5.48 4.41-2.36 2.96-3.8 7.46t-1.44 10.63q0 4.26.84 7.93.83 3.66 2.08 6.4 1.26 2.74 2.6 4.27 1.35 1.53 2.46 1.53.74 0 1.07-.47.32-.46.79-.46.55 0 .55 1.11 0 1.21-.69 2.74-.7 1.53-1.95 2.92t-2.97 2.32q-1.72.93-3.67.93-3.52 0-6.35-2.74-2.83-2.73-4.92-7.05-2.08-4.31-3.2-9.51-1.11-5.19-1.11-10.11"></path></svg></svg>